<?xml version="1.0" encoding="utf-8"?>
<!-- Generator: Adobe Illustrator 28.0.0, SVG Export Plug-In . SVG Version: 6.00 Build 0)  -->
<svg version="1.1" id="Camada_1" xmlns="http://www.w3.org/2000/svg" xmlns:xlink="http://www.w3.org/1999/xlink" x="0px" y="0px"
	 viewBox="0 0 3401.6 992.1" style="enable-background:new 0 0 3401.6 992.1;" xml:space="preserve">
<style type="text/css">
	.st0{fill:#D29B8C;}
	.st1{fill:#B45F3B;}
	.st2{fill:#4A2C2A;}
	.st3{enable-background:new    ;}
	.st4{fill:#3A3A3A;}
</style>
<g transform="translate(30, 0)">
	<g>
		<path class="st0" d="M662.9,854.7c-82.5-8.3-160.2-45.1-218.8-103.8c-58.6-58.6-95.5-136.4-103.8-218.8
			c-4.9-48.4-0.1-96.3,14.2-142.4c13.8-44.5,35.8-85.5,65.4-121.7c29.6-36.2,65.4-65.9,106.3-88.3c42.4-23.1,88.4-37.4,136.8-42.2
			l7.3,72.5C512.4,225.8,397,367,412.8,524.8c13.6,135.5,121.8,243.8,257.4,257.4L662.9,854.7z"/>
		<path class="st0" d="M902.4,292.6c-46.8-46.7-108.8-76.1-174.7-82.7l7.2-72.5c82.5,8.2,160.3,45,218.9,103.6L902.4,292.6z"/>
		<path class="st0" d="M734.9,854.7l-7.2-72.5c65.8-6.6,127.9-35.9,174.7-82.7l51.5,51.6C895.2,809.6,817.4,846.4,734.9,854.7z"/>
		<path class="st1" d="M699,710.7c-54.5,0-106.4-20.4-146.3-57.6c-42-39.1-66.2-92.1-68.2-149.4c-2-57.3,18.4-111.9,57.4-153.9
			s92.1-66.2,149.4-68.2c57.3-2,111.9,18.4,153.9,57.4l-49.7,53.3c-27.7-25.8-63.8-39.3-101.6-37.9c-37.8,1.3-72.9,17.3-98.7,45.1
			c-53.3,57.2-50.1,147.1,7.1,200.3c54.2,50.4,139,50.4,193.2,0l49.7,53.3C805.4,690.2,753.4,710.7,699,710.7z"/>
	</g>
	<circle class="st2" cx="698.9" cy="496.1" r="72.9"/>
</g>
<g>
	<g class="st3">
		<path class="st4" d="M1147.9,646.9c-22.7,0-43.9-3.7-63.4-11.2c-19.5-7.4-36.4-18-50.7-31.8c-14.3-13.8-25.5-29.9-33.5-48.4
			c-8-18.5-12-38.9-12-61.1c0-22.2,4-42.5,12-61.1c8-18.5,19.2-34.7,33.7-48.4c14.5-13.8,31.4-24.4,50.7-31.8
			c19.4-7.4,40.6-11.2,63.6-11.2c25.5,0,48.6,4.4,69.3,13.3s38,21.8,52,39l-43.8,40.4c-10.1-11.5-21.3-20.1-33.7-25.9
			c-12.4-5.8-25.8-8.6-40.4-8.6c-13.8,0-26.4,2.3-37.9,6.7c-11.5,4.5-21.5,10.9-29.9,19.4c-8.4,8.4-15,18.4-19.6,29.9
			c-4.6,11.5-6.9,24.3-6.9,38.3c0,14,2.3,26.8,6.9,38.3c4.6,11.5,11.2,21.5,19.6,29.9c8.4,8.4,18.4,14.9,29.9,19.4
			c11.5,4.5,24.1,6.7,37.9,6.7c14.6,0,28.1-2.9,40.4-8.6c12.4-5.8,23.6-14.5,33.7-26.3l43.8,40.4c-14,17.1-31.4,30.2-52,39.2
			S1173.7,646.9,1147.9,646.9z"/>
		<path class="st4" d="M1311.7,641.8V347h125.9c41,0,72.9,9.5,95.6,28.4c22.7,19,34.1,45.1,34.1,78.5c0,21.9-5.2,40.8-15.6,56.6
			c-10.4,15.9-25.1,28-44.2,36.4c-19.1,8.4-41.8,12.6-68.2,12.6h-89.7l30.3-29.9v112H1311.7z M1380,537.4l-30.3-32h85.9
			c21.1,0,36.8-4.6,47.2-13.7c10.4-9.1,15.6-21.7,15.6-37.7c0-16.3-5.2-28.9-15.6-37.9c-10.4-9-26.1-13.5-47.2-13.5h-85.9l30.3-32.4
			V537.4z M1499.2,641.8l-73.7-107h72.9l74.5,107H1499.2z"/>
	</g>
	<path class="st4" d="M1765.6,652c-88.2,0-160-71.8-160-160c0-88.2,71.8-160,160-160c88.2,0,160,71.8,160,160
		C1925.5,580.2,1853.8,652,1765.6,652z M1765.6,392.8c-54.7,0-99.2,44.5-99.2,99.2s44.5,99.2,99.2,99.2s99.2-44.5,99.2-99.2
		S1820.3,392.8,1765.6,392.8z"/>
	<circle class="st1" cx="1765.6" cy="492" r="48.6"/>
	<g class="st3">
		<path class="st4" d="M1970.6,641.8V347h56.4l125.5,208h-29.9L2246,347h56l0.8,294.8h-64l-0.4-196.7h11.8l-98.5,165.5H2121
			l-100.7-165.5h14.3v196.7H1970.6z"/>
		<path class="st4" d="M2372.8,641.8V347h68.2v294.8H2372.8z"/>
		<path class="st4" d="M2472.2,641.8L2603.6,347h67.4l131.8,294.8h-71.6l-107.8-260.3h27l-108.2,260.3H2472.2z M2537.9,578.7
			l18.1-51.8h151.6l18.5,51.8H2537.9z"/>
	</g>
</g>
</svg>
