<?xml version="1.0" encoding="UTF-8"?>
<svg id="Camada_1" data-name="Camada 1" xmlns="http://www.w3.org/2000/svg" viewBox="0 0 1920 1080">
  <defs>
    <style>
      .cls-1 {
        fill: #ccc;
        stroke-width: 0px;
      }
    </style>
  </defs>
  <path class="cls-1" d="m1920.6,254.55c-36.34-12.56-57.42-27.99-97.19-20.46-37.82,7.15-75.85,13.07-113.7,20.19-37.98,7.14-61.36-2.64-97.77-10.04-32.66-6.63-70.33,5.54-100.31,18-14.56,6.05-72.19,29.3-65.39,44.55,2.78,6.23,35.38,21.1,41.68,23.81,14,6.02,30.02,5.32,45.34,6.78,36.54,3.49,71.45,11.63,106.68,21.81,16.64,4.81,91.38,40.27,103.3,18.73-14.24,1.12-34.19,5.09-44.58-7.14,12.92-7.08,32.21-3.31,46.62-5.96,13.58-2.5,31.71-17.15,45.01-12.72-15.84,5.57-31.68,11.15-47.13,16.59,5.26,1.46,3.07,6.64,7.09,9.43,9.26,6.43,23.58-1.76,32.47,7.49-15.36,9.3-31.28,1.66-45.54-.39-23.67-3.41-43.53-6.07-67.06-13.78-27.49-9.01-54.89-17-83.3-22.55-23.11-4.51-54.87-14.86-78.65-10.23,59.06,13.37,123.85,18.65,175.51,52.87,21.16,14.02,45.16,35.31,41.16,63.33-3.94,27.64-28.1,46.94-49.48,61.43-100.91,68.4-240.42,84.83-358.38,102.29-130.66,19.34-264.86,17.2-396.53,14.4-131.23-2.79-266.9-2.26-396.33-26.16-67.05-12.38-136.36-25.65-199.62-51.93-31.91-13.26-67.03-30.38-95.06-50.66-10.64-7.7-19.34-16.98-23.89-29.5-6.69-18.42-2.26-22.07,8.09-36.35-14.71,11.15-48.1,11.21-65.83,14.27-15.25,2.63-16.89,3.7-25.46-4.25-3.68-3.41-.59-10.67-8.32-14.52-8.6-4.28-30.11,11.09-40.39,13.67-23.87,5.99-49.21,7.88-72.69,15.1,0-.94,0-1.87,0-2.81,38.9-5.89,103.76-11.75,126.77-44.66-10.24-7.11,2.75-8.52-.4-13.48-5.79-9.11-4.26-3.4-16.75-5.82-18.12-3.5-26.19-11.48-9.13-24.21-9.45-7.99-21.71-4.6-32.44-8.51,5.75-10.33,24.06-6.23,33.38-9.1,17.02-5.23,31.67-20.98,46.39-30.81,18.25-12.18,70.55-16.84,81.08-33.97-16.18-5.69-40.19-3.94-57.81-7.46-4.72-.94-43.9-6.25-30.41-14.89,3.59,23.86,92.73,8.54,91.35,25.3,15.57-5.46,41.2-20.77,57.31-15.3-11.71,20.25-52.37,11.7-47.31,38.32,2.17,11.41,13.51,10.18,3.22,23.85-3.11,4.14-10.84,4.85-14.11,9-4.23,5.38-3.08,13.5-7.8,18.92-8.87,10.18-22.26,7.86-34.21,11.44-13.65,4.09-13.59,10.37-24.05,18.26-3.29,2.48-16.13,10.88-20.2,6.23-5.3-6.06,16.34-13.47,16.86-18.42-10,3.3-31.79,15.81-35.54,25.8,9.24,2.39,19.71-2.83,30.09-2.01,11.77.92,24.29,4.2,36.17,5.66-.98-5.65,1.2-17.44,10.04-12.47,5.76,3.24-.82,9.51-.33,13.49,1.74,13.93,6.5,8.04-6.23,16.06-9.86,6.21-34.2,5.95-45.99,7.49-12.24,1.6-41.1,8.16-14.14,13.45,15.36,3.02,56.16-5.63,69.66-14.23,0,0-.06,0-.06,0,13.74-7.47,38.39-23.85,53.07-12.52,6.91-4.29,11.51-8.29,19.56-4.09-5.88,9.12-20.03,3.16-28.18,9.64-15.31,12.18-7.62,30.5,2.24,42.62,18.23,22.42,44.88,36.9,71.36,47.24,64.58,25.22,132.01,43.64,199.79,57.64,67.13,13.87,136.2,22.36,204.63,25.45,70.1,3.17,139.78,11.77,209.95,9.33,70.96-2.47,140.86-5.12,211.73-10.77,69.48-5.54,138.84-5.84,207.77-17.77,35.3-6.11,71.82-12.51,106.31-22.25,34-9.6,66.06-28,98.87-41.12,39.6-15.84,133.9-51,97.94-109.48-33.65-54.72-134.17-65.63-190.88-65.4-35.77.14-66.22-5.54-100.12-16.63-17.47-5.71-33.35-11.28-51.64-13.84-14.97-2.09-32.15-1.69-45.73-8.71,6.25-3.49,25.76-2.72,28.92-7.37-10.89-2.34-27.07-2.92-35.97-9.64,13.23-14.73,73.17-12.68,92.29-13.34,31.12-1.07,47.22-31.37,79.96-34.61,28.66-2.83,56.37,4.38,85.07.65,33.34-4.33,62.92-5.09,96.44-4.29,24.9.59,49.24-6.64,74.04-8.17,12.11-.75,26.7,1.16,39.92.16,11.34-.86,27.57-4.53,38.47-3.77,21.33,1.49,35.88,6.43,60.6,2.71,33.1-4.99,57.82,9.8,87.82,22.28v2.81Zm-363.43,97.4c0,.2,0,.4-.01.6,42.44,9.19,132.98,40.85,111.91,100.6-17.26,48.94-103.67,69.76-145.46,87.93-110.18,47.9-225.59,53.34-343.76,61.55-114.49,7.96-228.25,21.01-343.21,11.99-120.11-9.43-240.45-14.48-358.1-42.86-49.96-12.05-282.38-63.22-228.9-145.11-30.02-3.8-50.89,23.22-40.55,49.84,9.96,25.64,40.53,36.86,62.99,49.05,63.98,34.72,134.02,54.73,205.24,69.24,125.6,25.58,255.56,31.3,383.46,34.25,133.31,3.07,266.69,4.71,399.71-6.85,125.61-10.91,262.31-34.11,377.02-88.03,39.32-18.48,112.92-65.48,73.21-115.62-33.67-42.51-102.36-59.94-153.55-66.58Zm33.89-112.37c.04-.23.08-.47.12-.7-40.72,0-78.42,9.99-118.04,6.93-28.83-2.23-52.16.96-76.1,17.64-6.54,4.56-49.54,32.27-48.14,39.14,1.66,8.12,46.9,17.19,53.11,18.53,26.6,5.75,53.93,9.23,80.92,12.52.18-.48.36-.95.55-1.43-7.84-5.38-38.25-17.94-41.08-26.58-4.79-14.66,24.66-23.69,36.18-29.84,36.77-19.62,71.57-29.43,112.46-36.21ZM167.8,313.51c.54.4,1.09.79,1.63,1.19-17.44,7.86-31.77,20.5-47.65,30.93-15.96,10.49-27.71,10.66-45.52,15.3,9.54,2.57,20.38,4.39,29.29,8.89-7.23,8.95-20.93,12.09-5.64,21.54,11.85,7.32,29.75-8.52,30.39,8.99,11.69-4.33,25.12-14.35,36.3-20.08,7.48-3.84,32.18-13.72,27.11-27.03-5.4-14.17-28.38-4.02-35.32-14-6.35-9.13,3.6-17.9,9.4-25.71Zm119.3-34.47c-.06-.53-.12-1.07-.18-1.6-25.45,3.56-49.77,17.52-74.32,24.95-23.19,7.02-42.91,9.55-54.83,32.57,26.45,11.74,47.99,8.23,27.81,39.99.29.49.58.99.87,1.48,20.71-4.14,28.2-3.44,39.79-20.06,3.57-5.12,4.58-9.45,9.04-14.18,5.28-5.61,12.21-4.55,13.29-13.18,1.72-13.85-17.91-12.5-7.36-28.12,8.75-12.97,34.31-11.4,45.9-21.85Zm991.62,27.86c21.96,3.3,46.05,3.94,67.42,9.98,17.74,5.01,34.42,13.39,52.42,18.26,40.06,10.84,81.53,6.79,122.47,11.04.05-.46.1-.92.15-1.39-37.61-5.81-75.23-13.16-112.79-19.64-12.42-2.14-52.77-6.82-59.49-17.95-7.96-13.18,9.61-18.78,21.27-26.38-.17-.57-.35-1.14-.52-1.71-32.83,1.81-65.23,7.93-98.09,10.5,10.8,3.33,30.49,3.25,39.53,10.4-7.65,6.59-22.74,5.47-32.37,6.89Zm341.21-64.48c-.06.27-.11.53-.17.8,27.01,8.76,49.28,14.97,77.78,10.39,31.26-5.02,63.2-10,94.16-16.21-21.24-16.95-52.91-1.28-79.66-1.81-30.19-.59-60.98,4.87-92.11,6.83ZM132.39,421.92c.03.53.06,1.05.09,1.58,15.42,11.13,42,1.2,58.72-3.34,0-.72.02-1.44.03-2.16-20.8-5.36-38.8,1.88-58.84,3.91Zm-18.02,8.38c20.18,17.23,58.64,1.23,82.69-2.56-7.31-10.07-28.9,1.29-39.58,2.7-16.41,2.16-27.96-5.85-43.11-.14Zm1630.44-56.66c-12.65-4.23-25.47-4.17-38.61-1.53,4.36,6.17,27,5.59,38.61,1.53Zm32.9,10.97c-14.2-4.97-31.02-5.28-35.12-1.34,10.97,5.43,22.58,5.52,35.12,1.34Zm-1647.97,34.8c10.79-2.34,20.82-4.52,31.04-6.74-8.88-5.53-27.12-3.35-31.04,6.74Zm17.83-19.91c12.4.24,19.8-3.97,24.74-16.98-8.95,6.15-16.85,11.56-24.74,16.98Zm48.49,14.84c-3.44,4.56,3.42,10.43,6.71,11.74.42-5.6-.57-15.87-2.59-21.06-4.42,1.45-5.79,4.56-4.12,9.32Z"/>
  <path class="cls-1" d="m1920.6,665.1c-10.97.81-23.62-11.7-35.01-13.46-11.57-1.78-20.43,3.03-31.41,3.93-3.24.27-21.83-2.13-25.19,1.09-8.19,7.83-2.55,9.75-2.94,18.6-14.75-5.31-20.48-20.77-38.43-22.26-10.17-.84-20.69.85-30.86,1.1.03.29,2.88,10.25,2.31,11.23-1.17,2-31.07-6.61-35.8-7.49-.27.58-.55,1.17-.82,1.75,2.03,2.21,3.06,4.8,3.1,7.75-3.78,6.54-18.79-5.96-22.78-6.85-10.61-2.35-14.79-1.52-25.66.36.83-10.94,4.62-12.17-5.05-19.27,2.27-1.79,4.8-2.99,7.59-3.59-3.79-4.59-9.24-5.56-16.91-3.81-2.19,13.47-26.32,17.94-33.28,4.63-5.26-10.06,9.68-9.03,7.3-15.03-3.05-7.66-17.72-10.12-24.68-10.7-19.8-1.67-45.3,3.69-65.79,4.69-22.48,1.1-45.86,5.38-67.07,12.91,32.13,12.8,68.94,12.47,102.51,18.32,19.85,3.46,70.11,20.5,76.04,41.87-14.63,3.68-45.5-21.4-59.34-26.15-21.93-7.53-48.84-5.47-71.32-1.41-.18.46-.35.93-.53,1.39,18.41,13.67,35.05,24.07,52.04,39.78,17.52,16.21,39.01,27.56,60.05,39.03,24.13,13.15,46.01,28.24,69.29,42.64,18.07,11.17,57.19,16.32,68.28,35.59-16.04,7.12-54.89-18.54-68.53-26.15-22.34-12.46-42.88-30.55-66.16-40.8-22.05-9.71-44.23-18.1-66.21-28.36-22.18-10.35-35.11-27.85-55.97-38.02-20.71-10.1-46.99-18.05-69.01-25.42-22.17-7.42-52.85-24.15-76.31-24.18-5.35,0-50.77,9.02-54.57,14.49-16.86,24.35,44.44,7.16,42.66,15.05-1.07,4.78-13.31,5.89-16.4,6.68,21.79,20.79,61.48,37.63,90.49,45.67,15.87,4.4,37.72-4.77,48.87,5.25,2.73,2.45-7.27,7.19-6.07,9.72,3.75,7.92,17.94,6.83,23.56,13.71-11.13-3.04-37.43-8.35-20.62-22.09-9.68-8.55-13.24.79-23.68,1.46-7.99.52-23.32-4.85-30.79-7.15-13.94-4.29-25.94-12.24-38.98-18.08-9.52-4.27-66.38-26.93-33.82-34.66-.09-.47-.18-.94-.27-1.41-6.03.43-11.56,2.31-16.59,5.65,3.73,7.81,3.78,10.66-6.23,10.8,31.4,25.64,69.38,32.85,100.15,56.11,9.73,7.35,20.58,9.62,30.47,15.93,11.94,7.62,10.15,14.07,17.32,24.01,16.32,22.61,43.62,27.37,67.47,38.66,24.85,11.76,36.46,32.71,57.59,48.88,21.61,16.54,49.68,18.18,71.89,34.06,23.59,16.87,40.85,38.73,67,52.3,23.56,12.22,45.97,25.1,60.69,48.32-11.75-8.9-20.63-21.06-32.59-29.72-11.71-8.49-24.97-12.89-37.54-19.76-28.53-15.59-46.07-44.3-75.67-58.01-28.93-13.39-49.87-19-72.74-42.63-24.14-24.94-49.81-31.83-79.68-46.84-24.84-12.48-30.21-36.85-53.12-49.41-12.18-6.68-22.35-16.21-34.21-22.82-9.39-5.24-19.79-4.92-29.2-9.99-20.46-11.02-45.21-30.64-68.16-35.85-7.04-1.6-13.85,1-21.19-1.86-3.2-1.25-4.12-6.38-5.62-6.94-7.14-2.67-16.54-2.6-24.02-6.13,6.05-8.94,36.91-4.42,36.26-9.94-2.12-17.85-44.82-4.68-54.95-4.25,4-6.25,26.95-8.15,33.8-8.23,18.16-.22,27.22,10.65,33.61,26.73-12.51-10.12-26.58-7.75-43.05-7.75,4.77,5.17,15.42,3.39,22.01,3.63,8.38,7.76,29.95,10.21,40.67,8.04-5.73-8-23.27-7.71-24.74-19.64-1.55-12.63,16.13-14.42,25.48-16.2,22.58-4.31,36.6-11.08,59.95-1.87-5.71-12.36,38.68-10.98,46.1-11.51-4.88-8.07,63.37-13.25,71.93-14.23,27.25-3.12,55.95,1.51,82.06-6.79-24.57,3.94-48.39-.6-72.67-5.76,13.46-9.69,30.67,2.6,46.94,3.18,10.69.38,60.63-10.29,67.35.68-5.56.84-11.12,1.68-17.97,2.71,13.03,6.67,26.93,13.28,39.97,18.03,5.22,1.9,31.05,6.22,14.14,13.15,9.5,3.87,4.39,9.78,1.53,16.44,16.6-7.91,28.78,1.05,43.77,8.39-.15-3.02-1.17-5.77-3.06-8.26,12.21-5.28,23.71,1.01,36.37,4.04.29-.39.58-.78.87-1.16-1.59-2.22-2.82-4.62-3.69-7.2,1.92-3.97,32.17-4.95,34.21-4.74,14.42,1.49,24.19,9.65,34.47,19.08-6.97-18.87,28.93-17.53,39.77-19.41,23.14-4.02,38.37,5.17,59.04,12.96v2.81Zm-514.41-20.9c-.16.31-.33.62-.49.93,33.54,12.92,67.96,24.56,101.96,36.35,28.85,10,44.98,30.82,72.28,44.54,30.7,15.43,61.81,24.64,90.47,43.6,29.08,19.25,60.46,34.92,92.87,47.49.24-.52.49-1.04.74-1.56-35.54-18.16-68.82-36.59-103.33-56.95-30.99-18.29-62.8-31.54-88.29-57.03-12.24-12.24-31.6-18.23-42.52-29.79-13.4-14.19,1.63-12.79,15.99-13.34,42.37-1.62,68.61,9.34,105.22,29.33l.79-1.24c-24.38-19.56-52.9-31.98-83.7-36.5-13.03-1.91-90.74-7.05-92.37-20.37,1.79-2.2,4.12-3.47,6.99-3.82-.1-.44-.2-.87-.29-1.31-10.86,1.1-21.71,2.2-33.47,3.39,8.75,2.37,87.58,20.37,65.99,38.61-9.59,8.1-41.23-4.64-51.57-6.96-19.42-4.35-38.37-9.06-57.24-15.38Zm-1.25-6.38c-.09.64-.17,1.29-.26,1.93,11.45,4.12,104.19,39.22,112.02,22.68,5.53-11.68-40.79-24.88-46.17-26.09-21.99-4.97-43.54-1.09-65.59,1.48Zm224.56-2.35c7.22,3.39,34.23,15.68,28.12-2.45-5.66-16.8-20.21-5.15-28.12,2.45Zm-301.97,48.51c-.02-.59-.04-1.18-.06-1.77-9.81-.63-19.41-2.8-29.24-3.4,9.38,8.06,17.22,5.64,29.3,5.17Z"/>
  <path class="cls-1" d="m1920.6,419.52c-18.66,4.94-38.36,3.98-57.03-.24-12.69-2.87-30.92-15.15-43.54-14.22,4.88,1.38,8.06,4.33,9.55,8.83-8.31,2.68-16.3,1.64-24.09,6.02,22.79,10.95,43.69-2.64,62.65,17.16,9.48,9.9,16.52,21.11,13.57,34.62-12.42-9.29-13.97-8.2-29.38-4.43-10.8,2.64-24.31,4.13-2.85,10.68,11.49,3.51,28.28-9.07,34.71,4.58,7.33,15.59-5.26,18.75-15.05,13.8,10.45,17.89.57,23.74-14.98,34.19-15.7,10.55-20.46,15.28-33.49,3.5,1.95,10.13-4.47,22.91-16.99,21.24-4.27-.57-9.23-11.93-14.42-14.4-19.28-9.18-36.03,9.64-51.72,10.94,8.31,5.25,23.3,11.27,19.96,22.03l-1.29-.23c1.27,3.31,2.55,6.63,3.84,9.99,3.71-1.77-.05-11.47,8.17-6.25.51-5.5,2.56-10.17,6.17-14.02,2.69,3.69,3.99,7.89,3.89,12.6,16.58-24.08-21.07-24.33-31.8-22.8-.09-.53-.17-1.07-.26-1.6,15.48-2.47,34.3-8.4,36.6,14.16,1.4-4.61,4.29-7.57,8.65-8.88,5.21,11.46-.02,22.46,4.94,35.08,1.74-5.35,4.72-9.68,8.93-12.99,2.77,3.5,4.11,7.61,4.03,12.32,1.04-5.4,3.73-9.49,8.07-12.28,2,2.73,3.14,5.79,3.41,9.2,2.68-3.36,8.63-14.82,14.37-13.6,1.66,4.3,1.74,8.78.24,13.43,4.15-4.21,10.89-14.06,18.02-13.67-.56,4.58-2.21,8.81-4.96,12.69.43.36.86.73,1.3,1.09,4.38-3,9.08-4.22,14.11-3.67-.9,3.35-2.25,6.53-4.03,9.52,24.44-4.49-.24,7.83,2.8,15.92,4.46,11.86,48.74,20.47,57.89,22.47v5.62c-17.28-4.8-34.81-11.27-52.48-14.48-18.04-3.27-33.79.84-51.12-6.6-29.98-12.87-67.01-28.24-100.94-24.85,4.05,2.44,7.02,5.75,8.91,9.93-8.38,4.44-23.43-.13-30.5-5.99,1.66-.43,3.33-.87,4.99-1.3,2.48,4.69,17.24,5.42,21.46,6.25-2.62-3.78-4.85-7.01-7.34-10.6-3.59,2.56-7.75,7.27-14.24,4.49-18.14-12.38-30.27-13.35-51.83-16.2-.14.41-.27.83-.41,1.24,6.86,3.35,38.86,12.36,38.93,22.32.05,7.4-32.9,1.47-38.26,1.01-18.55-1.6-37.1-3.31-55.68-4.34-4-.22-37.58.62-34.63-4.15,2.99-4.82,47.6,1.41,54.11,1.68,23.49,1.01,47.3,6.12,70.7,6.12.26-.46.52-.92.78-1.38-7.19-4.42-45.44-15.26-42.12-26.85,3.68-12.85,34.93-8.47,42.59-7.25-2.17-2.47-3.57-4.07-5.48-6.23,21.15-12.66,42.31-7.1,62.74-15.36,9.49-3.84,18.07-8.74,26.99-13.3,14.88-7.61,20.81-3.22,35.97-6.21-2.03-1.47-3.93-3.1-5.69-4.9,10.69-7.81,28.97-2.08,39.06-11.12h-16.24c-.06-.44-.12-.88-.19-1.32,10.95-2.21,23.31-3.88,34.22-.87,5.94,1.64,6.04,11.46,14,7.59,6.75-3.28,2.1-13.48-2.18-16.44-7.71-5.33-29.96,1.73-38.62,2.8-.1-.49-.19-.97-.29-1.46,5.01-.95,10.01-1.91,15.02-2.86.03-.34.07-.67.1-1-4.45-.1-8.75-.95-12.88-2.55,3.01-7.43,9.26-13.43,18.13-12.97-14.42-2.38-13.13-10.01-13.28-23.02,12.53,0,36.39-3.16,45.21,7.34-.84-26.65-33.49-17.74-48.38-16.04.62-1.31,1.24-2.62,1.91-4.03-2.58.42-4.77-.27-6.55-2.06,8.11-5.28,34.27-1.24,44,.42-13.56-12.7-18.93-13.24-36.45-13.81-19.63-.64-23.59-10.93-40.16-15.96,10.23,3.9,19.46-1.8,29.08-1.48.12-.43.24-.86.35-1.3-14.75-5.42-25.61.47-40.01,2.27,1.77-8.9,25.94-7.75,32.77-9.06.04-.51.08-1.02.12-1.53-4.71-1.77-9.41-3.55-14.43-5.43-.28,12.09-39.62,3.46-44.77.4,19.7-13.74,43.22-3.58,63.19,4,23.41,8.88,44.9,14.8,69.45,19.41-.43-3.02-.63-4.47-.84-5.92,3.5,10.18,24.29,2.72,31.21,1.75v2.81Zm-101.41,174.54c-.99-3.87-1.79-6.97-2.59-10.07-1.19,4.61-3.64,8.15-7.35,10.64-3.03-2.77-4.7-6.36-5.03-10.76-.42-.1-.84-.2-1.26-.3-.76,4.87-2.73,9.12-5.92,12.76-11.23-8.22-8-23.58-6.49-35.31-4.92.76-9.11,16.27-12.14,20.56-2.98-3.83-4.5-8.27-4.56-13.32-2.07,5.55-3.74,10.02-5.41,14.49-.49.13-.98.25-1.46.38-.6-1.24-1.2-2.49-1.79-3.73-.6,3.36-1.63,6.58-3.08,9.66-3.65-2-6.21-5.05-7.69-9.14-.39.18-.77.36-1.16.54,3.49,17.99,19.04,15.82,36.57,19.2,22.56,4.36,50.3,13.56,72.82,13.56-9.7-7.01-4.28-11.23,5.1-16.28-.2-.48-.4-.96-.61-1.44l-13.77,2.96c-.16-.42-.32-.84-.48-1.26,2.28-3.08,4.57-6.17,6.85-9.25-4.48,1.75-9.06,3.14-13.75,4.18-.66-4.85.34-9.42,3.01-13.73.24.33.48.66.72.99-5.32,4.51-10.73,10.19-17.03,13.36-2.02-4.7-1.7-9.56.96-14.55-.26-.18-.51-.35-.77-.53-4.45,5.32-8.9,10.64-13.71,16.39Zm-63.61-24.9c-14.18-14.91-51.97-25.15-68.45-8.3,20.61-3.31,35.68,6.49,48.98,17.95,6.83-3.39,13.01-6.45,19.48-9.65Zm-109.89,6c13.7,1.62,31.16.84,44.25,5.33,3.48,1.19,12.37,21.24,23.28,3.35,6.06-9.93-14.95-12.57-22.89-13.75-17.16-2.54-29.28-3.78-44.64,5.06Zm90.17,7.45c-14.09-9.75-30.25-25.13-49.17-18.35,9.62,6.71,21.72,7.9,31.2,15.2,4.2,3.24,4.61,6.65,9.72,9.69,3.72,2.22,20.51,3.17,24.8,4.05-.59-4.45-1.06-8.04-1.62-12.32-2.58,2.19-20.48,10.65-14.92,1.73Zm145.46-92.15c0-14.1-7.35-6.35-15.7-6.31-1.59,0-33.52-.72-32.38,7.39.11.8,45.69,5.65,46.95,4.71.38-1.93.75-3.87,1.13-5.8Zm5.67,135.65c-9.6-7.37-69.9-21.19-82.71-19.47,26.66,15.69,53.56,11.13,82.71,19.47Zm-58.39-84.84c32.54-18.14.26-20.47-19.83-17.56,8.91,4.03,17.33,6.73,19.83,17.56Zm-24.33,10.69c8.29-2.09,21.44-9.44,9.28-18.48-8.5-6.32-29.44,3.57-38.58,5.83,9.55,1.03,29.84-5.06,29.29,12.66Zm-1.81-30.94c10.15,4.06,25.85-2.78,36.79-1.93,3.54.27,18.67,11.07,19.72-1.13,1.5-17.52-48.83,1.57-56.51,3.06Zm-37.84,17.04c13.37-2.65,25.57-5.07,38.31-7.6-14.33-6.09-26.39-3.2-38.31,7.6Zm-.72-141.84c-.02.44-.04.88-.07,1.32,9.94,2.23,24.68,5.84,34.01.17-6.6-9.43-25.14-2.79-33.95-1.48Zm97.24,66.15c-5.71-.71-17.24-4.03-22.99-1.32,4.28,5.15,17.32,4.08,22.99,1.32Z"/>
  <path class="cls-1" d="m.94,42.71c105.3-1.27,210.46,3.37,315.78-.07,102.85-3.36,209.23,13.77,311.36-1.76,24.06-3.66,38.65-6.64,62.22-3.37,21.6,2.99,34.31-8.08,56-11.5,17.77-2.8,36.3,1.32,54.35.15,24.35-1.58,38.82,11.45,61.82,14.7,23.45,3.31,49.64-7.28,72.75-10.78,25.04-3.79,45.4-1.97,70.06,3.17,23.19,4.84,40.51,10.73,61.81,20.56,9.07,4.19,16.11,6.42,25.65,7.46,8.15.89,22.98-5.16,29.78,1.25-40.75,10.43-79.5-18.61-118.54-26.69-25.04-5.19-47.1-6.18-72.55-2.16-24.24,3.83-53.02,13.87-77.61,7.84-20.01-4.91-30.36-13.45-51.32-13.2-18.65.22-38.4-3-56.78.77-21.6,4.43-34.1,13.38-55.24,11.54-25.24-2.19-43.63,1.84-69.2,4.53-99.32,10.45-200.47-2.43-300.04-.02-106.85,2.58-213.54-1.61-320.3.41,0-.94,0-1.87,0-2.81Z"/>
  <path class="cls-1" d="m206.42,437.76c-11.65-21.96,85.3-42,97.94-45.34,8.57-2.26,19.86-2.03,27.71-6.55,2.82-1.62,7.03-9.88,11.7-12.71,18.22-11.05,49.58-14.59,70.58-18.62,54.25-10.42,108.47-5.92,163.02-12.33,24.48-2.88,46.56-11.2,70.27-16.3,22.2-4.78,48.41,1.61,68.42-12.02-9.52-2.63-23.03-2.35-30.06-9.27,11.78-6.13,26.22.1,39-3.57-22.67-15.58-50.28-16.05-74.24-31.05,1.88,4.09,15.43,20.61,15.98,23.98,1.66,10.2,1.65,5.41-6.96,11.19-4.78,3.21-15.06,4.93-21.11,8.07-8.28,4.29-10.33,7.96-19.78,11.2-35.34,12.12-79.16,10.59-116.05,12.25-42.7,1.93-82.12,1.66-123.9,13.02-19.35,5.26-38.36,12.36-56.7,20.47-16.02,7.09-30.13,20.46-45.77,26.59,13.29-23.42,60.8-36.44,84.51-44.26,38.45-12.67,74.59-16.71,114.63-17.25,35.18-.48,70.52-2.77,105.11-8.82,17.41-3.05,35.52-2.85,50.91-11.16-.21.11,36.37-20.98,34.68-15.08,1-3.48-15.33-21.34-18.66-24.96-10.42-11.38-21.04-17.34-37.01-17.77-33.84-.91-71.1,8.73-104.72,13.17-67.76,8.96-137.57.49-205.59,3.49-.12-.56-.24-1.11-.36-1.67,44.31-16.69,102.98-1.76,149.08-.79,26.53.56,52.44-2.64,78.68-6.23,15.94-2.18,51.01-.92,64.15-9.63-7.68,0-90.34,14.1-91.63,5.93,1.16-3.58,3.74-5.95,7.72-7.12-.17-.55-.35-1.1-.52-1.66-15.81,3.28-26.88,9.95-42.98,6.03-12.9-3.14-26.46-15.17-37.37-21.64-19.29-11.43-44.25-13.53-22.16-36.97-29.06-15.34-76.81-4.25-107.7,1.51-18.28,3.41-36.04,7.24-53.64,13.24-17.67,6.02-43.91,21.6-62.71,17.74,16.63-14.73,37.97-17.22,59.29-23.53-17.1-2.54-30.11-14.65-47.41-16.13-17.38-1.49-39.06,2.87-56.15,6.36-9.54,1.95-114.86,37.26-114.34,37.9-4.69-5.73,73.35-28.66,81.64-31.02,37.47-10.68,76.81-22.6,114.08-7.75,74.53,29.68,164.96-51.42,235.04,14.95,9.77,9.26,10.46,21.91,17.25,32.34,5.53,8.49-.76,9.25,6.92,12.4,2.8,1.15,18.84-6.26,21.77-7.15,15.73-4.78,23.22-12.82,36.99-19.98,19.3-10.03,30.24,5.29,47.85,13.8,8.97,4.33,2.84,3.4,13.76,4.85,9.63,1.28,19.65-2.23,29.77,1.23,16.21,5.54,28.37,19.61,43.67,26.98,15.12,7.28,36.38,4.24,49.37,15.04,20.13,16.73-13.67,11.83-27.46,13.05,18.19,2.58,35.26,5.45,11.84,15.57-17.98,7.76-40.36,2.96-59.33,7.96-46.02,12.12-90.84,19.53-138.98,19.76-45.46.22-87.65,6.33-131.62,18.19-9.13,2.46-21.7,3.66-29.74,8.7-3.29,2.06-6.08,7.45-7.86,8.52-16.01,9.63-39.65,10.38-57.62,20.04l.19,1.24c.99.26,23.6,3.96,23.94,8.13.48,5.79-33.98,10.77-27.61-9.83-27.45,1.86-50.49,13.39-69.78,33.27,0,0,.05,0,.05,0Zm128.08-245.21c.04.2.07.4.11.59,18.05,0,42.39-6.6,59.64-.37,24.97,9.02.97,9.69,2.07,23,1.56,19.01,32.53,9.4,40.94,10.11,15.4,1.31,21.24,13.77,30.9,25.98,5.32-23.49-25.88-43.56-43.07-51.57-28.01-13.05-60.63-11.76-90.59-7.75Zm171.2,66.8c26.88,2.78,52.57-4.68,80.05-8.03-10.33-7.52-27.32-24.24-41.77-20.92-12.83,2.95-28.36,21-38.27,28.96Zm-36.21-.87c.16-.26.32-.52.48-.77-9.13-10.28-19.44-32.66-35.22-27.69-18.88,5.95,28.53,25.25,34.74,28.47Zm-228.51-45.49c-14.56.72-48.77,12.42-54.61,18.68,8.07.63,47.11-12.72,54.61-18.68Zm407.7,55.5c-8.8-13.52-39.95-21.98-51.31-14.11,20.85,1.31,32.82,4.67,51.31,14.11Zm-358.47,146.59c-2.28.45-4.13.82-5.98,1.19.1.52.2,1.04.31,1.56l13.11-2.11c-.05-.32-.1-.64-.16-.96-6.37-1.86-12.75-3.71-20.32-5.92,3.28,6.2,9.07,3.21,13.04,6.24Z"/>
  <path class="cls-1" d="m1145.76,69.09c8.17,3.66,17.35,6.46,23.86,12.74-11.89,8.91-36.91,4.67-50.93,4.27-22.59-.64-45.17-1.53-67.75-2.3-47.4-1.6-94.78-3.61-142.17-5.31-43.19-1.56-86.41-2.44-129.6-3.74-14.16-.42-111.63,1.49-114.44-10.28,1.61-.27,3.21-.53,4.8-.79-.23.4-.46.8-.68,1.2,9.12,6.09,29.36,2.95,40.6,3.72,23.18,1.58,46.38,2.65,69.6,3.49,43.76,1.57,87.54,2.63,131.3,4.08,43.71,1.45,87.38,3.38,131.07,5.19,20.1.83,40.24,1.3,60.36,1.56,17.43.23,48.34,5.95,64.15-1.61-11.77-5.4-23.54-10.79-35.28-16.18,8.31-29.15,60.87-5.81,77.09-1.69,28.28,7.19,57.67,5.98,86.64,6.32,30.65.36,61.31.21,91.96.15,23.73-.05,79.26-9.59,96.97,10.64-55.35-17.96-125.6-8.22-183.54-7.67-28.13.27-56.36-5.17-84.25-4.75-22.94.34-45.64,3.07-69.5-.48-.09.48-.17.95-.26,1.43Zm62.16-.68c.12-.7.25-1.4.37-2.11-24.64-6.39-49.42-18.52-73.29-4.66,23.89,5.54,48.48,6.76,72.92,6.76Z"/>
  <path class="cls-1" d="m26.18,235.44c17.61,3.06,35.1,3.36,52.74,5.66,7.51.98,16.88,1.58,23.67,5.22,8.95,4.8-1.98,3.84-.44,9.34,1.36,4.86,30.52,3.8,35.32,7.56-8.23,7.35-25.8,9.39-36.31,12.35-.04.43-.09.85-.13,1.28,18.95,5.57,36.28,9.94,55.95,12.21,12.34,1.43,37.17-1.35,46.19,7.07-9.02,3.79-103.08-6.03-105.52-20.2-.51-2.95,31.33-10.32,34.82-11.28-.11-.56-.23-1.11-.34-1.67-6.36-.51-40.2,1.57-29.05-13.06-4.93-11.8-64.53-7.6-77.51-12.6.2-.63.4-1.25.6-1.88Z"/>
  <path class="cls-1" d="m1503.45,97.14c21.42,18.38,85.45,6.25,111.61,5.55-8.89-13.94-33.08-13.4-47.66-14.7-10.38-.92-21.5-1.3-31.58,1.92-5.61,1.79-10.81,8.19-16.45,8.72,10.69-25.79,102.41-9.93,98.18,2.7-4.22,12.61-105.98,9.32-114.1-4.19Z"/>
  <path class="cls-1" d="m1737.82,108.76c-19.86,3.52-42.78,1.44-62.94.97-15.95-.37-36.09,2.78-50.86-4.15,27.02-17.55,84.66-9.11,113.97.65-.06.84-.11,1.69-.17,2.53Zm-5.24-2.11c-24.64-9.33-76.36-11.91-100.46-2.3.12.77.25,1.53.37,2.3h100.09Z"/>
  <path class="cls-1" d="m941.28,1027.59c-6.42-1.93-25.13-3.33-26.15-12.96-1.28-12.13,10.01-3.04,14.57-10.39.75-1.21-.32-9.13-.24-11.08.1-2.67-5.77-19.94-5.48-20.36,3-4.33,10.8,3.1,13.6-3.42,4.36-10.14-5.69-20.3-9.61-27.87-5.08-1.37-8.48-4.4-10.22-9.1,1.19-5.47-.06-10.24-3.73-14.31-.05-.06-16.1-6.38-17.93-7.44-23.04-13.37-.05-23.68-16.88-38.75-3.63-3.26-50.44-11.07-17.97-17.24-6.09-12.38-14.32-23.74-27.83-27.84-6.7-2.03-44.95-2.47-49.98,3.4-12.84,15,23.12,39.14,31.86,45.6,7.36,5.44,18.82,15.54,24.38,22.47,3.37,4.2,8.07,11.51,9.06,16.86,1,5.42-2.81,12.38-1.64,16.35,2.44,8.3,12.15,10.5,15,20,1.31,4.37-3.41,36.64-4.9,38.67-8.5-7.7-15.47-22.16-27.1-7.27-2.09-35.61-53.36-20.97-57.15-42.21-1.18-6.58,8.62-13.96,7.73-19.11-1.97-11.48-4.98.69-9.46-6.92-7.51-12.78-3.91-17.58-21.25-13.84,1.49-8.54,11.33-21,6.41-28.04-5.76-8.23-18.98-2.58-26.99-3.7,3.73-16.91,8.23-8.04-3.05-16.89-5.69-4.47-22.25-1.19-27.81-6.27-6.57-6-.97-8.97-7.03-17.63-9.82-14.03-23.95-5.35-35.55-.67-11.13,4.48-12.09,2.7-23.94,5.84-6.69,1.77-18.06,13.38-24.57,9.26-5.44-3.44,9.13-18.79-11.2-23.93-6.73-1.7-11.07,3.12-16.87,2.34-.47-.06-15.25-6.41-9.7-7.05-10.18,1.16-11.28,6.64-20.08,5.4-6.68-.94-6.21-8.14-13.64-8.77-12.7-1.07-25.41,10.37-23.5,23.37,1.14,7.74,20.46,22.23,15.46,30.96-5.29,9.23-53.71-12.02-65.75-11.2-10.62.72-8.43,9.49-20.76,4.32-2.46-1.03-1.72-8.67-3.65-10.54-5-4.86-6.75,1.36-11.67-6.85-4.7,8.48-15.7,46.4-25.33,26.07,1.28,2.7-1.63-28.91-1.62-29.65.11-12.88,7.81-7.88,3.36-19.69-48.3,0,41.1-64.96,41.67-74.69.47-8.01-1.22-4.51-7.76-6.97-5.56,1.81-11.19,2.32-16.89,1.53-.24-1.84-.48-3.69-.73-5.53-3.1-1.2-7.27-5.54-14.12-6.95-9.3-1.92-18.81,4.02-26.98-.89,14.06-23.37,51.72-5.87,69.13-.59,7.27,2.2,43.34,10.8,35.65-4.17-4.8-9.34-35.69-19.91-45.7-21.44-10.08-1.54-53.89,9.76-58.64-3.27-2.74-7.52,68.92-4.11,71.67-15.4,2.99-12.3-22.93-10.88-31.73-12.55-21.16-4.03-35.81-14.23-53.83-24.74-14.06-8.19-19.39-5.98-35.71-6.8-17.43-.87-33.59-6.82-50.22-11.7-16.07-4.72-35.75-17.76-51.59-20.47-13.47-2.3-23.6,4.99-35.75,10.77.26.67.51,1.34.77,2.01,3.33-.68,6.65-1.36,10.23-2.08,1.8,4.83-5.16,26.24-6.39,31.36-2.45,10.25-5.44,15.61-13.36,24.27,32.35,10.5-18.9,22.9-26.61,32.73-15.89,20.25,12.02,45.47,5.48,68.67-6.96,24.66-36.94,38.64-48.49,61.64-18.3,36.43,28.34,18.6,24.27,44.1,25.74,1.75,8.55,12.23,17.78,26.14,8.59,12.95,23.75.06,34.73,2.98,13.91,3.69,13.54,1.86,1,13.37-16.12,14.81-21.79,16.63-28.72,37.68-12.73-6.44-33.65,18.7-27.28,31.51,3.34,6.72,10.67,3.56,14.25,8.19,3.82,4.94-2.22,9.06.58,14,10.25,18.15,28.99,19.38,29.18,45.16.04,4.83-.83,21.08-5.09,23.34-8.48,4.49-11.27-6.28-8.3-14.59,1.32,4.33,2.65,8.66,4.25,13.91,10.66-11.98,7.45-34.59-1.21-46.56-3.86-5.34-10.75-7.55-14.42-12.4-1.13-1.49-7.79-17.77-7.03-16.89-7.58-8.75-16.82-5.2-14.74-23.15,1.67-14.42,14.14-26.18,27.51-28.33-.57-21.27,24.15-29.59,37.56-40.68-.11-.45-.21-.9-.32-1.35-9.87.66-38.29,9.08-45.25-1.53-3.97-6.05,2.43-10.82.5-16.16-4.28-11.85-.96-1.88-8.42-10.22-.1-.12-10.5-4.33-10.9-4.63-1.85-1.39-5.02-8.37-8.94-11.34-17.64-13.34-22.79-8.26-14.04-35.7-13.8,15.43-19.97,31.94-21.89,52.44-1.14,12.18-5.38,42.53,1.84,52.76,7.96-3.58,16.44-21.97,31.15-12.24,7.11,4.7,2.62,10.07,5.23,15.71.97,2.1,9.79,15.18,9.81,15.29,7.23,34.15-44.25,40.51-47.39-2.01-.44-.19-.89-.39-1.33-.58-7.98,10.82-25.22,26.02-23.43,40.4,1.91,15.3,6.22,10.5,19.46,15.42,24.86,9.24,44.3,40.6,38.63,67.83-.51-.05-1.02-.1-1.53-.15-3.41-18.48-5.24-40.09-20.05-53.99-11.04-10.36-35.14-8.19-40.37-23.88-6.25-18.74,17.67-32.45,23.75-47.14,7.88-19.03-.56-45.25,1.24-65.51,1.87-21.01,7.03-36.33,18.56-53.83,9.16-13.91,35.65-38.76,35.92-56.66.37-24.99-18.31-14.46-34.78-9.44-6.19,1.89-10.18,8.56-15.14,4.05-6.63-6.03,7.79-19.93,11.48-23.45-1.54-2.23-3.75-3.72-6.61-4.47-.47-2.09,25.86-27.81,28.65-34.63.39-.95-7-2.85-6.47-3.95,3.2-6.61,9.17-7.16,14.54-11.86,4.3-3.76,33.73-27.16,29.28-35.1-6.34-11.32-46.26,9.68-52.04,11.9.85-14.09,9.18-14.92-3.89-22,11.81-9.41,4.78-16,14.05-27.69,13.35-16.85,44.5-11.52,14.32-33.95-34.12-25.36-79.13-21.9-118.8-20.37,1.55-1.33,3.1-2.66,4.8-4.12-4.31-.85-7.98-2.71-11-5.59-1.46-26.12,122.66,11.13,135.73,18.01,7.46,3.92,14.75,14.72,22.34,16.77,10.07,2.72,23.86-9.84,33.27-.32,15.08,15.26-34.86,7.56-42.35,13.31,6.26.61,23.54-1.03,27.37,5.33,3.89,6.46-10.32,21.01-12.06,27.07-3.21,11.19-.01,17.81-.36,29-.45,14.49-8.51,21.53-14.26,33.95,10.56-7.6,24.64-8.77,34.1-19.42-22.82-7.9-4.52-7.84.1-22.34,4.41-13.86-2.59-18.19,8.04-33.6-4.76-2.75-8.49-1.35-11.52,3.01-12.72-14.96,32.53-26.07,41.56-24.53,3.7.63,20.07,3.36,23.03,4.73,3.62-1.65,6.81-1.2,9.58,1.34.92,3.25,2.29,6.3,4.11,9.13,6.32,1.33,12.23-3.73,18.71-3.12,2.1.2,13.2,5.57,15.82,6.65,9.66,3.98,22.14,9.99,34.19,11.92,16.69,2.68,28.83,5.16,43.47,14.45,18.65,11.85,35.19,13.82,56.38,20.73,14.64,4.77,29.13,11.85,10.76,22.92-15.88,9.57-44.74,1.64-62.27,6.36.05.44.1.87.15,1.31,21.02,0,50.48-4.49,69.86,3.05,12.5,4.86,56.63,32.83,19.08,32.83,26.45,17.84-46.93,38.9-51.01,55.01,18.61-6.02,38.84-10.49,25.39,11.59,15.51-6.83,31.6-10.9,44.13,1.5,8.33,8.25,13.78,12.08,6.09,22.79-3.92,5.46-22.91,15.85-29.25,16.92,2.47,3.34,4.35,5.88,6.24,8.42-.43.38-.86.75-1.29,1.13-22.48-21.55,44.25-20.06,15.09-46.2-9.38-8.41-4.72-6.87-16.99-7.32-10.22-.37-21.39,9.48-31.95,8.96,3.55-11.63,20.7-20.12-1.91-19.55-17.3.44-25.05,19.22-32,31.65,7.39,10.66-1.23,9.73-1.72,20.3-.21,4.52,4.09,8.45,3.86,12.21-.49,8.04-4.3,14.85-1.92,22.65,9.66-5.49,11.38-33.19,23.37-34.53,5.18-.58,13.76,18.47,15.43,19.06,9.38,3.3,6.17-5.09,14.05-4.81,6.66.23,9.79,4.65,16.27,5.76,15.68,2.67,35.73,8.23,51.02,8.72-2.45-18.06-27.5-31.22-9.87-49.48,15.25-15.8,27.08-5.35,39.62,2.44,14.65-12.69,65.08-5.77,56.68,22.88,13.24-8.64,19.54-7.69,32.98-11.65,7.04-2.07,10.75-8.2,17.99-10.48,12.49-3.93,48.63,7.65,34.12,23.38,13.95,2.81,52.01,2.65,36.64,23.82,28.43-4.02,32.55,10.17,19.33,31.17,16.1-4.67,16.56,3.87,22.48,14.34,2.08,3.68,8.53,1.66,9.62,7.69,1.23,6.8-10.94,14.84-9.19,20.88,3.78,13.05,25.17,6.69,37.72,13.32,8.39,4.43,12.73,13.69,20.82,18.08,8.36,4.54,14.78,1.84,22.18,10.17-1.26-7.8,4.15-24.31,2.39-29.26-2.26-6.37-9.33-7.48-11.48-12.14-4.81-10.42.86-15.73-2.2-27.47-2.51-9.64-10.92-15.4-17.53-21.84-11.93-11.63-27.62-18.25-38.03-31.26-4.8-5.99-8.15-24.12-12.57-27.64-5.87-4.67-20.45-2.24-27.88-4.08-39.9-9.86-83.97-52.28-46.72-89.73,33.96-34.14,105.12-27.3,148.78-34.08-38.23-24.14,69.79-5.52,18.92.85-.02.51-.04,1.02-.06,1.53,45.54,7.15,91.45,10.51,135.62-3.58-7.84-3.49-30.3-11.4-12.14-17.87,20.19-7.19,16.79,17.45,28.68,20.23-6.99-15.78,20.39-25.02,29.75-30.03-26.61-2.49-54.24,5.61-81.49,3.26-21.16-1.82-41.43-2.63-62.73-1.83-53.17,1.98-104.63,5.07-157.77-.56-49.55-5.25-98.5-11.22-147.91-17.69-38.97-5.11-91.67-18.46-125.17,11.36,21.45,12.34,102.07-25.54,113.58-4.58,17.33,31.57-81.38,12.05-81.89,14.04-22.77-5.5-54.15-7.12-13.83-22.33,25.24-9.52,47.32-10.89,73.88-6.45,55.25,9.25,109.98,16.17,165.79,20.7,56.19,4.56,109.01,6.54,165.37,3.08,25.46-1.56,46.76-.43,71.63,1.67,26.85,2.27,59.85-10.17,85.3-2.46-11.82,16.66-40.2,13.52-24.35,34.47,3.9,5.16,20.26,16.7,26.3,19.84,6.79,3.53,16.76.11,22.6,4,14.84,9.89,6.57,15.31-7.06,20.03-21.36,7.39-33.38,1.09-53.32,14,10.94,10.04,54.5,16.52,28.5,38.46-14.81,12.5-50.3-.49-64.35-7.62-12.71-6.45-37.06-18.61-26.91-35.86,10.31-17.52,52.6-5.82,68.41-7.65,7.11-.82,30.44-4.77,30.17-15.6-.13-5.25-15.97-13.79-20.58-17.38-27.65-21.53-38.71-6.19-70.69-2.59-22.68,2.55-48.48-4.16-71.45-5.23-26.16-1.22-46.63-6.05-73.5-3.12-38.39,4.19-126.73,4.31-132.48,58.17-2.18,20.39,30.19,45.32,46.66,53.18,9.12,4.35,30.44,10.19,40.04,6.76,9.02-3.22,15.25-14.67,23.73-20.03,41.28-26.12,97.68-22.96,143.09-11.11,27.4,7.15,36.22,25.83,56.86,40.25,15.4,10.76,2.92,2.71,14.91,4.36,4.86.67,20.62-11.46,18.88,5.77,26.48,2.88,22.44-9.94,39.24-25.35-14.24-6.16-22.87-3.83-12.72-18.99,3.15-4.71,21.44-13.06,26.34-14.02v-3.58c2.12.63,4.25,1.27,6.37,1.9-3.88,6.74-32.36,12.66-34.24,22.29-1.91,9.79,11.27,2.03,13.6,8.21,4.06,10.73-2.94,8.43-9.83,17.61-7.41,9.87,6.58,9.06-10.8,17.12-6.46,3-13.85-4.66-21.04,1.24-9.4,7.72,3.52,7.64-2.27,13.92-11.92,12.94-12.58-.86-15.83,15.86,3.14,3.72,4.82,7.98,5.05,12.78-1.93,2.38-4.04,4.6-6.31,6.65.04,3.64,1.09,7.03,3.15,10.17,1.84,5.16.09,8.4-5.26,9.7-.36,1.29-8.03,1.39-8.82,4.55-1.53,6.11,8.98,15.83,9.09,22.32-4.95,2.78-7.68,6.66-8.18,11.64,2.68,2,5.74,3.1,9.18,3.28.39-3.73-3.49,18.37-4.15,14.36,3.83,23.07,34.91,24.57,38.05,49.3-.4.09-.8.17-1.19.26-9.67-22.02-52.3-36.16-32.12-60.53-22.09-5.33-3.09-11-2.81-20.69.34-11.9-11.07-10.61-7.1-25.02.95-3.45,8.02-2.34,9.94-6.5-1.94,4.19.82-22.89,1.23-17.89-.94-11.3-9.27-23.34,6.66-30.17-.14-.42-.27-.85-.41-1.27-22.8,4.4-46.5-28.35-20.86-27.52-30.3-33.4-59.13-41.79-103.72-48.28-36.44-5.31-85.15,8.37-110.21,35.81l.83,1.24c22.87-3.05,48.76-10.49,67.88,6.06,10.73,9.29,21.73,24.85,2.21,26.98,7.37,10.36,15.97,3.29,24.63,8.45,12.37,7.36,6.47,10.13,10.56,21.25,3.04,8.26-2.4,3.14,4.19,12.81,3.89,5.71,9.31,7.75,14.01,11.12,4.62-1.1,8.46.1,11.51,3.61,2.48,3.52,3.47,7.43,2.98,11.72,1.86,2.82,7.96,7.79,9.28,10.25,5.04,9.34,22.35,41.24-2.68,36.12,7.46,10.09,8.28,22.92,2.21,32.62-5.68,9.08-12.46-3.79-9.64,8.42,1.77,7.67,18.55,2.74,21.08,11.36l.11-.13Zm-797.96-253.97c12.8-17.59-2.25-41.4,1.8-60.49,4.88-23.05,20.13-34.02,21.97-58.36,1.02-13.44-.84-17.4,5.32-30.73,2.6-5.62,10.01-12.84,6.13-18.86-7.46-11.57-38.65,3.17-44.61,8.76-.02-.16-.15-1.4-.31-2.88-8.63,4.75-13.13,7.62-17.98,15.32-4.23,6.72,6.23,12.81-5.65,16.82,10.72,2.78,4.79,10.06,1.57,17.19,12.25-5.19,54.19-25.37,50.08,1.13-2.56,16.48-31.97,23.87-38.19,35.64,7.39,17.67-12.57,30.59-24.32,41.09,11.29,8.97-9.03,15.62-7.04,27.37,19.03-10.16,51.23-25.04,51.23,8Zm886.41-15.92c-.13-.45-.27-.9-.4-1.34-12.28,0-70-8.5-71.79,12.15-1.35,15.66,35.87,29.9,47.35,33.01,10.71,2.9,60.11,8.02,45.98-16.25-6.69-11.49-52.32-14.46-21.15-27.56ZM104.52,972.92c-4.47,9.57,29.04,4.85,30.08-13.67.35-6.25-5.94-4.06-6.83-7.65-.75-3.02-2.78-15.85-4.84-18.62-27.72-37.34-42.95,47.61-18.4,39.94Zm317.34-238.78c72.23-10.9-36.21,56.44-30.36,76.02,5.92,19.83,25.59-25.94,28.73-29.61,6.51-7.62,58.49-32.32,57.27-41.51-.6-4.55-35.77-15.76-42.42-18.04-15.07-5.17-30.89-5.82-46.21-.65,12.48,1.27,32.99-2.45,32.99,13.79ZM11.61,550.76c-.04.56-.08,1.13-.12,1.69,33.13,5.1,64.97,4.4,97.47,14.51,17.88,5.56,38.02,32.92,53.86,23.99-7.22-4.55-14.05-8.85-20.87-13.15.23-.39.47-.77.7-1.16,4.96,2.95,9.91,5.9,14.87,8.85-11.59-16.32-41.37-23.67-59.7-29.43-22.76-7.16-63.61-16.2-86.22-5.32Zm500.51,124.56c6.88,1.88,89.53,8.07,76.82-7.99-7.24-9.15-67.98.67-76.82,7.99Zm-365.6,42.76c-2.16,20.45,8.69,35.68-.48,56.21-6.22,13.93-17.93,26.34-26.19,39.23,12.38-10.87,30.16-24.33,36.85-39.83,8.23-19.05-3.32-37.77-10.18-55.62Zm863.04,146.21c4.39-2.76,21.91-16.23,16.17-22.61-4.57-5.07-8.55,3.77-12.54,3.82-9.99.13-14.79-1.44-25.22-2.19.57,13.41,7.8,18.82,21.59,20.97Zm23.98-150.12c18.43,14.18,36.89,21.75,10.94,37.69,7.74-.52,46.32-2.17,39.85-13.95-1.83-3.34-23.03-5.86-27.1-7.99-9.17-4.81-12.01-14.92-23.69-15.75Zm-765.98-97.59c20.97,4.14,40.34,15.82,63.24,15.84-5.47-4.5-21.53-9.74-28.52-12.29-1.93-.7-11.18-2.3-13.35-2.55-12.44-1.38-3.89-5.35-21.36-1.01Zm612.93,82.51c-10.94-7.05-22.32-8.84-34.94-3.45,11.12,10.63,23.17,5.74,34.94,3.45Zm107.86-8c6.71,2.99,15.6,8.58,23.23,9.04.62-11.97-14.97-15.31-23.23-9.04Zm-816.51-101.36c.08.42.16.84.24,1.25,9.74,2.98,18.49,7.59,27.46.73-8.41-7.05-17.6-3.4-27.7-1.98Zm89.12,25.45c.45-.4.9-.8,1.35-1.19-4.19-9.4-6.24-7.78-16.61-7.21l-.19,2.21c5.15,2.07,10.3,4.13,15.45,6.2Z"/>
  <path class="cls-1" d="m1146.79,716.86c-17.41-6.93-37.92-12.15-52.69-23.91,15.88-10.06,23.72.34,39.22,1.12-8.72-16.89,10.04-13.61,22.57-14.56-.43-1.47-.87-2.94-1.35-4.59,9.37-4.49,15.16,13.19,22.9,15.05.01-9.14,6.72-21.64-4.21-25.85-6.92-2.67-10.39,4.1-15.89,4.81-5.04.64-9.59-.59-14.58-.08-20.98,2.12-56.02-2.79-71.47,14.41,4.3,2.26,8.2,4.31,12.11,6.36-.16.38-.33.77-.49,1.15-39.38-12.19,20.7-20.73,32.62-21.79,10.7-.95,23.62-.39,33.78-1.85,12.57-1.81,20.22-11.95,32.76-1.02,15.27-6.55,31.07-6.66,47.66-6.66,0,.49.02.98.03,1.47-12.56,1.26-52.63,1.06-42.74,20.32-1.44-2.72-2.64-5.53-3.62-8.44-3.8,6.38-2.95,12.37-3.84,19.56-10.72-1.74-13.2-6.14-19.45-14.35-3.77,13.97-11.1-.79-17.58,3.67-3.89.48-6.88,2.19-8.94,5.13.94,1.83,1.52,3.77,1.71,5.82-9.85,6.67-22.32-6.78-38.35.52,12.68,6.55,28.07,8.67,40.27,15.78,5.83.41,10.49,2.68,14,6.81-1.29,2.58-2.36,5.26-3.21,8.02,11.72,9.37,34.32,15.19,49.33,17.48,12.23,1.87,22.47-.87,34.53,2.18,13.74,3.48,23.97,9.16,38.87,10.38,11.06.91,21.66-.2,32.54,3.77,10.39,3.79,16.02,10.67,25.64,15.31,8.45,4.08,21.03,6.07,30.22,9.45,14.89,5.46,23.36,1.61,37.6,3.09,11.53,1.2,10.99,7.26,20.95,9.72,9.65,2.39,16.31-3.84,26.04.46,6.79,3,14.41,13.77,22.4,18,12.21,6.47,23.14,11.63,34.1,20.4,15.38,12.31,46.35,35.62,52.33,54.73-19.63-.27-47.61-35.86-62.65-47.48-18.99-14.67-39.95-23.9-62.4-32.1-25.25-9.22-48.26-7.24-73.56-15.94-20.29-6.98-41.53-15.69-61.46-20.81-3.49.4-6.93,1.06-10.33,1.99-4.09-.56-7.15-2.72-9.18-6.47-5.93-1.03-13.44.18-19.83-1.31-1.81-3.24-4.21-5.99-7.19-8.27-5.48-2.15-11.11-2.69-16.9-1.62-8.6-1.68-16.59-6.53-25.19-7.4-9.18-.93-15.6,1.02-24.18-.42-12.63-2.13-18.99-2.23-32.33-1.34-6.05-2.81-12.19-3.1-18.43-.85-4.36,2.73-8.8,5.33-13.31,7.81-11.44,2.31-24-2.74-34.18,4.52,25.87,9.96,12.47,21.41-4.82,5.15,7.26,2.01,11.42,6.89,19.06,5.66-3.22-4.03-17.25-5.97-16.68-10.78,1.6-13.71,26.49-5.89,33.93-7.27,10.13-1.88,17.66-7.97,28.7-9.54,5.77-.82,23.7-2.03,29.86-.93,5.06,2.47,10.05,5.05,14.98,7.75,4.91-.81,9.73-1.99,14.46-3.53,8.08,1.23,14.16,5.67,21.9,7.43,18.43,4.18,33,6.81,49.56,9.94,1.7,3.51,4.29,5.97,7.77,7.39,5.27.04,10.46-.57,15.57-1.84,11.96,2.45,19.59,10.15,30.86,14.45,18.85,7.2,42.14,15.51,61.84,16.24,63.68,2.37,106.87,44.24,154.19,82.45-25.8-33.99-60.95-59.67-97.7-78.73-11.38-5.9-11.77-.98-23.1-3.81-7.14-1.78-10.05-8.88-16.01-10.85-6.78-2.25-17.55,2.86-24.41,2.71-12.63-.27-21.9-6.25-33.51-9.8-17.82-5.45-30.01-15.01-46.26-20.66-18.63-6.47-38.68-1.35-57.58-8.04-19.17-6.79-31.18-6.59-50.94-9.95-11.38-1.94-54.87-8.51-46.33-25.58Z"/>
  <path class="cls-1" d="m1644.54,868.02c-35.4-30.33-83.67-39.63-120.28-69.71-8.88-7.3-44.91-31.66-39.33-43.68,6.5-13.99,48.37,6.64,52.47,11.95-3.49,2.36-7.3,4-11.44,4.93.06.4.11.8.17,1.21,20.1,6.42,28.56,27.77,49.06,37.77,20.25,9.87,41.09,10.63,61.91,17.24,27.02,8.57,6.33,13.83,17.32,28.22,6.76,8.85,15.86,1.47,23.94,3.23,7.54,1.65,12.51,6.34,18.81,9.6,10.79,5.58,25.81,4.45,37.67,10.83,17.85,9.6,27.21,32.34,46.39,43.28,18.71,10.68,38.21,16.22,58.91,20.82,17.09,3.8,53.73,8.95,65.62,20.83-13.38,4.71-47.49-13.44-62.1-17.11-22.7-5.71-44.25-9.68-64.73-22.01-17.93-10.79-26.95-31.4-43.35-41.46-12.99-7.97-41.7-9.68-56.64-12.43,2.45-3.3,7.63-2.21,12.21-4.13-11.14-6.63-19.6-1-29.88-4.52-16.61-5.69-7.66-9.21-11.61-19.07-3.32-8.29-.11-7.99-12.52-12.25-11.89-4.08-25.05-4.14-37.13-7.91-17.91-5.58-39.56-14.77-52.64-28.48-3.08-3.23-14.78-14.63-16.25-17.44-3.41-6.49-15.28-6.47,1.58-11.65-3.34-1.4-46.31-18.97-45.79-8.83,1.05,20.51,56.66,52.99,72.04,62.16,16.13,9.62,82.26,29.15,85.51,48.69l.07-.07Z"/>
  <path class="cls-1" d="m580.41,702.06c-7.18,1.1-57.28,11.73-48.98-8.04,7.28-17.34,51.44-4.34,62.01-2.51-.04.46-.09.92-.13,1.38-22.67,0-40.69-8.98-61.28,4.07,17.45,13.49,37.68-1.03,57.27,2.41,12.97,2.27,30.94,12.24,13.93,24.53,20.54,0,42.55,28.07,17.55,39.74-19.55,9.13-67.56,10.74-79.72-3.4-.94-1.1,3.9-4.98,1.85-7.71-2.17-2.89-8.09-4.53-9.51-7.61-4.37-9.48-7.96-3.41,1.1-12.55,4.95-4.99,43.29-9.32,43.23-6.84.37-14.69-15.37-8.54,3.04-22.01-.12-.49-.24-.97-.37-1.46Zm-49.81,34.83c-.06.6-.12,1.21-.18,1.81,6.01,3.94,12.32,7.38,16.93,13.03,3.83,4.7-5.44,7.53-.44,11.78,8.98,7.63,38.78.78,49.77-.38,13.32-1.4,30.46-.38,31.23-15.71,1.24-24.89-25.95-15.41-37.97-19.85,5.54-10.1,25.02-7.47,11.69-20.59-6.77-6.65-25.92-2.85-28.51,7.2-3.01,11.69,20.71,11.95-6.86,15.41-5.51.69-11.3-.76-16.56.18-6.33,1.13-11.69,6.02-19.09,7.12Z"/>
  <path class="cls-1" d="m1644.47,868.1c14.3,7.06,27.84,23.92,42.78,27.87-6.72-5.94-19.34-13.57-10.99-23.02-1.98,32.14,66.5,47.44,86.51,61.22,17.36,11.95,32.45,26.3,50.46,37.58,9.91,6.2,50.92,17.86,56.69,26.03-36.2,4.48-80.11-40.62-105.99-59.43-18.2-13.23-36.88-18.53-56.88-28.15-23.08-11.09-41.55-27.82-62.47-42.2-.02.02-.09.09-.09.09Z"/>
  <path class="cls-1" d="m1104.62,724.75c-9.06-1.98-85.75-21.1-48.74-31.36,15.85-4.39,94.82,23.01,48.74,31.36Zm-57.08-26.78c1.51,17.02,70.46,28.02,71.09,19.76,1.1-14.37-60.56-22.24-71.09-19.76Z"/>
  <path class="cls-1" d="m493.38,764.78c-12.79,14.44-19.97,9.76-11.77-6.9,9.47-19.26,22.97-24.21,41.39-14,9.42,5.22,15.88,6.52,6.19,14.75-2.53,2.15-35.6,6.37-35.81,6.16Zm.56-5.78c3.65,3.21,31.82-1.87,38.07-5.38-15-21.34-52.08-9.46-52.12,16.07,6.64-.58,9.61-5.94,14.04-10.69Z"/>
  <path class="cls-1" d="m1040.66,1030.56c8-.1,14.92,15.34,22.94,18.16,1.92.68,16.98-.44,18.63-.35,21.3,1.21,27.29,10.1,38.08,29.79-3.42,4.55-10.73-13.24-11.75-14.36-11.56-12.66-4.59-4.48-20.43-8.03-4.14-2.04-8.04-4.44-11.72-7.2-4.05,1.14-8.03,2.45-11.96,3.94-10.43-3.01-17.55-13.41-24.95-20.73.39-.41.78-.81,1.16-1.22Z"/>
  <path class="cls-1" d="m941.17,1027.71c18.78,6.03,4.49,15.05,7.33,21.93,4.08,9.88,20.76,15.46,14.26,28.87-3.71-7.62-13.27-17.45-15.57-24.25-3.42-10.14,1.46-14.62-5.91-26.67,0,0-.11.12-.11.12Z"/>
  <path class="cls-1" d="m1821.75,348.77c22.75-11.56,49.26,21.61,59.57,38.14-16.56-16.35-33.55-42.03-59.57-38.14Z"/>
  <path class="cls-1" d="m137.39,648.13c-23.92-3.26-6.21-22.01,5.66-21.9,32.62.3,9.19,16.01-5.13,22.95-.18-.35-.36-.7-.53-1.05Zm1.25-21.89c-18.95,24.94,1.29,17.92,19.68,9.69-6.64-3.74-14.89-1.14-19.68-9.69Z"/>
</svg>