<?xml version="1.0" encoding="utf-8"?>
<!-- Generator: Adobe Illustrator 28.0.0, SVG Export Plug-In . SVG Version: 6.00 Build 0)  -->
<svg version="1.1" id="Camada_1" xmlns="http://www.w3.org/2000/svg" xmlns:xlink="http://www.w3.org/1999/xlink" x="0px" y="0px"
	 viewBox="0 0 615.4 717.2" style="enable-background:new 0 0 615.4 717.2;" xml:space="preserve">
<style type="text/css">
	.st0{fill:#D29B8C;}
	.st1{fill:#B45F3B;}
	.st2{fill:#4A2C2A;}
</style>
<g transform="translate(30, 0)">
	<g>
		<path class="st0" d="M294.4,717.2c-82.5-8.3-160.2-45.1-218.8-103.8C17,554.8-19.9,477.1-28.2,394.6
			c-4.9-48.4-0.1-96.3,14.2-142.4c13.8-44.5,35.8-85.5,65.4-121.7C81,94.3,116.8,64.6,157.7,42.2C200,19.1,246.1,4.9,294.4,0
			l7.3,72.5C144,88.4,28.5,229.6,44.4,387.3C58,522.8,166.2,631.1,301.7,644.7L294.4,717.2z"/>
		<path class="st0" d="M533.9,155.2c-46.8-46.7-108.8-76.1-174.7-82.7L366.5,0C449,8.2,526.8,45,585.4,103.6L533.9,155.2z"/>
		<path class="st0" d="M366.5,717.2l-7.2-72.5c65.8-6.6,127.9-35.9,174.7-82.7l51.5,51.6C526.8,672.2,449,709,366.5,717.2z"/>
		<path class="st1" d="M330.5,573.2c-54.5,0-106.4-20.4-146.3-57.6c-42-39.1-66.2-92.1-68.2-149.4c-2-57.3,18.4-111.9,57.4-153.9
			s92.1-66.2,149.4-68.2c57.3-2,111.9,18.4,153.9,57.4l-49.7,53.3c-27.7-25.8-63.8-39.3-101.6-37.9c-37.8,1.3-72.9,17.3-98.7,45.1
			c-53.3,57.2-50.1,147.1,7.1,200.3c54.2,50.4,139,50.4,193.2,0l49.7,53.3C436.9,552.8,385,573.2,330.5,573.2z"/>
	</g>
	<circle class="st2" cx="330.5" cy="358.6" r="72.9"/>
</g>
</svg>
